# xmcd
# 
# Track frame offsets:
#     150
#     14249
#     29968
#     46334
#     57890
#     68310
#     77873
#     90173
#     97785
#     134638
#     146161
#     156769
#     170976
#     181256
#     194902
# 
# Disc length: 2777
# 
# Revision: 0
# Processed by: cddbd v1.5.2PL0 Copyright (c) Steve Scherf et al.
# Submitted via: BonkEnc v1.0
# 
DISCID=d80ad70f
DTITLE=Marius Zgaianu - Uite aista-i neamul meu
DYEAR=2007
DGENRE=Country
TTITLE0=Hopa hop, caiutii mei !
TTITLE1=Hai multi ani, multi inainte !
TTITLE2=In Seara Sfanta sosesc !
TTITLE3=Dumnezeu de la-nceput
TTITLE4=Sculati, crestini, nu dormiti !
TTITLE5=Ta, ta, ta, capra caprita !
TTITLE6=Joaca, joaca, urs batran !
TTITLE7=Ista-i cerbul cel fudul !
TTITLE8=Uratura pentru lume
TTITLE9=Uite, aista-i neamul meu !
TTITLE10=Asa zice mos Vasile !
TTITLE11=Cand era mamuca fata
TTITLE12=La joc si la veselie
TTITLE13=Taraneasca, uite-asa !
TTITLE14=Hai noroc, multi ani !
EXTD=
EXTT0=
EXTT1=
EXTT2=
EXTT3=
EXTT4=
EXTT5=
EXTT6=
EXTT7=
EXTT8=
EXTT9=
EXTT10=
EXTT11=
EXTT12=
EXTT13=
EXTT14=
PLAYORDER=
